<?xml version="1.0" encoding="utf-8"?>
<svg version="1.1" xmlns:xlink="http://www.w3.org/1999/xlink" width="62px" height="57px" xmlns="http://www.w3.org/2000/svg">
  <defs>
    <linearGradient gradientUnits="userSpaceOnUse" x1="0" y1="-2.531308496145357E-14" x2="62" y2="57" id="LinearGradient867">
      <stop id="Stop868" stop-color="#00284d" offset="0" />
      <stop id="Stop869" stop-color="#00080f" offset="1" />
    </linearGradient>
  </defs>
  <g transform="matrix(1 0 0 1 105 -246 )">
    <path d="M 58.83673469387755 11.392578124999998  C 59.7795118047219 11.763671875000002  60.51140456182473 12.295572916666663  61.032412965186076 12.988281250000002  C 62.024809923969585 14.398437499999998  62.24809923969588 15.994140625000002  61.70228091236495 17.775390625000004  L 51.468187274909965 51.396484375  C 50.9967987194878 52.979817708333336  50.04781912765107 54.3095703125  48.62124849939976 55.3857421875  C 47.194677871148464 56.4619140625  45.675070028011206 57  44.062424969988 57  L 9.713085234093638 57  C 7.802721088435375 57  5.960584233693479 56.338216145833336  4.186674669867948 55.0146484375  C 2.4127651060424173 53.691080729166664  1.1784713885554223 52.064453125  0.48379351740696275 50.134765625  C -0.11164465786314526 48.477213541666664  -0.1364545818327331 46.90625  0.40936374549819926 45.421875  C 0.40936374549819926 45.322916666666664  0.44657863145258103 44.988932291666664  0.5210084033613445 44.419921875  C 0.595438175270108 43.85091145833333  0.6450580232092838 43.393229166666664  0.6698679471788715 43.046875  C 0.6946778711484594 42.848958333333336  0.6574629851940776 42.5830078125  0.5582232893157263 42.2490234375  C 0.458983593437375 41.9150390625  0.4217687074829932 41.67382812500001  0.44657863145258103 41.525390625  C 0.4961984793917567 41.25325520833333  0.595438175270108 40.99348958333333  0.7442977190876351 40.74609375  C 0.8931572629051621 40.49869791666666  1.0978391356542616 40.20800781249999  1.358343337334934 39.87402343749999  C 1.6188475390156063 39.54003906249999  1.8235294117647058 39.24934895833333  1.972388955582233 39.00195312500001  C 2.5430172068827535 38.06184895833332  3.1012404961984794 36.93001302083333  3.6470588235294117 35.60644531250001  C 4.192877150860344 34.28287760416667  4.565026010404162 33.15104166666666  4.763505402160864 32.21093750000001  C 4.837935174069628 31.963541666666664  4.844137655062025 31.59244791666666  4.782112845138055 31.097656250000004  C 4.720088035214086 30.602864583333336  4.713885554221688 30.25651041666666  4.763505402160864 30.05859375  C 4.837935174069628 29.786458333333332  5.048819527811125 29.440104166666668  5.396158463385355 29.019531249999996  C 5.743497398959584 28.598958333333336  5.954381752701081 28.314453124999996  6.028811524609845 28.166015625  C 6.549819927971188 27.275390625  7.070828331332533 26.137369791666664  7.591836734693877 24.751953124999996  C 8.112845138055222 23.36653645833333  8.42296918767507 22.25325520833333  8.522208883553422 21.412109374999996  C 8.54701880752301 21.189453124999996  8.516006402561024 20.793619791666664  8.429171668667466 20.224609375000004  C 8.34233693477391 19.655598958333332  8.348539415766307 19.30924479166666  8.447779111644659 19.185546874999996  C 8.54701880752301 18.86393229166666  8.819927971188475 18.486653645833325  9.266506602641057 18.053710937500004  C 9.713085234093638 17.620768229166664  9.985994397759104 17.342447916666664  10.085234093637455 17.218750000000004  C 10.556622649059625 16.57552083333333  11.083833533413367 15.5302734375  11.66686674669868 14.0830078125  C 12.249899959983994 12.6357421875  12.591036414565828 11.442057291666666  12.690276110444177 10.501953124999998  C 12.715086034413766 10.304036458333325  12.677871148459385 9.988606770833329  12.578631452581032 9.555664062499998  C 12.479391756702682 9.122721354166663  12.454581832733094 8.794921875  12.504201680672269 8.572265625  C 12.553821528611445 8.374348958333329  12.66546618647459 8.151692708333329  12.839135654261703 7.904296875  C 13.01280512204882 7.656901041666666  13.23609443777511 7.372395833333328  13.509003601440575 7.050781249999998  C 13.781912765106044 6.729166666666662  13.99279711884754 6.469401041666664  14.141656662665065 6.271484374999998  C 14.340136054421771 5.974609375000002  14.54481792717087 5.597330729166666  14.755702280912365 5.139648437500002  C 14.966586634653861 4.681966145833326  15.152661064425772 4.249023437500002  15.31392557022809 3.8408203125  C 15.475190076030414 3.432617187499998  15.673669467787118 2.987304687499998  15.909363745498199 2.5048828125  C 16.145058023209288 2.022460937500002  16.386954781912767 1.6266276041666639  16.635054021608642 1.3173828124999978  C 16.883153261304525 1.0081380208333255  17.21188475390156 0.7174479166666617  17.621248499399762 0.4453125  C 18.030612244897963 0.1731770833333256  18.477190876350544 0.030924479166665964  18.960984393757503 0.01855468750000211  C 19.444777911164465 0.006184895833325599  20.03401360544218 0.07421875000000211  20.728691476590637 0.22265625  L 20.691476590636256 0.333984375  C 21.634253701480592 0.111328125  22.266906762705084 0  22.589435774309724 0  L 50.90996398559424 0  C 52.74589835934374 0  54.16006402561025 0.6927083333333277  55.15246098439376 2.078125000000002  C 56.14485794317728 3.463541666666664  56.36814725890356 5.071614583333326  55.822328931572635 6.90234375  L 45.62545018007203 40.5234375  C 44.732292917166866 43.467447916666664  43.8453381352541 45.3662109375  42.96458583433373 46.2197265625  C 42.08383353341337 47.0732421875  40.48979591836734 47.5  38.18247298919568 47  L 5.842737094837935 47  C 5.172869147659064 47.5  4.701480592236895 47.685546875  4.428571428571428 48.056640625  C 4.1556622649059625 48.452473958333336  4.143257302921169 48.984375  4.391356542617046 49.65234375  C 4.986794717887155 51.384114583333336  6.773109243697479 52.25  9.750300120048019 52  L 44.09963985594237 52  C 44.81912765106043 52.25  45.513805522208884 52.058268229166664  46.183673469387756 51.6748046875  C 46.85354141656662 51.291341145833336  47.28771508603442 50.777994791666664  47.486194477791116 50.134765625  L 58.65066026410564 13.507812499999998  C 58.82432973189276 12.963541666666663  58.88635454181673 12.258463541666664  58.83673469387755 11.392578124999998  Z M 22.217286914765904 10.6875  L 21.43577430972389 13.062499999999998  C 21.33653461384554 13.384114583333329  21.361344537815125 13.662434895833329  21.510204081632654 13.897460937499998  C 21.65906362545018 14.132486979166663  21.907162865146063 14.25  22.254501800720288 15  L 44.881152460984396 15  C 45.20368147258904 14.25  45.52000800320128 14.132486979166663  45.83013205282113 13.897460937499998  C 46.14025610244098 13.662434895833329  46.34493797519008 13.384114583333329  46.44417767106843 13.062499999999998  L 47.22569027611044 10.6875  C 47.3249299719888 10.365885416666664  47.30012004801921 10.087565104166664  47.15126050420168 9.8525390625  C 47.00240096038416 9.61751302083333  46.75430172068828 9.499999999999998  46.40696278511405 10  L 23.78031212484994 10  C 23.4577831132453 9.499999999999998  23.141456582633054 9.61751302083333  22.831332533013203 9.8525390625  C 22.52120848339336 10.087565104166664  22.31652661064426 10.365885416666664  22.217286914765904 10.6875  Z M 19.12845138055222 20.187499999999996  L 18.346938775510203 22.562500000000004  C 18.247699079631854 22.884114583333332  18.272509003601442 23.162434895833332  18.421368547418968 23.397460937500004  C 18.570228091236498 23.632486979166664  18.818327330932373 23.749999999999996  19.165666266506605 24  L 41.79231692677071 24  C 42.11484593837535 23.749999999999996  42.4311724689876 23.632486979166664  42.74129651860744 23.397460937500004  C 43.0514205682273 23.162434895833332  43.25610244097639 22.884114583333332  43.355342136854745 22.562500000000004  L 44.136854741896755 20.187499999999996  C 44.236094437775115 19.86588541666666  44.21128451380552 19.58756510416666  44.062424969988 19.352539062499996  C 43.913565426170464 19.117513020833336  43.665466186474596 19.000000000000004  43.31812725090036 19  L 20.691476590636256 19  C 20.368947579031616 19.000000000000004  20.05262104841937 19.117513020833336  19.74249699879952 19.352539062499996  C 19.432372949179676 19.58756510416666  19.227691076430574 19.86588541666666  19.12845138055222 20.187499999999996  Z " fill-rule="nonzero" fill="url(#LinearGradient867)" stroke="none" transform="matrix(1 0 0 1 -105 246 )" />
  </g>
</svg>