<?xml version="1.0" encoding="utf-8"?>
<svg version="1.1" xmlns:xlink="http://www.w3.org/1999/xlink" width="18px" height="15px" xmlns="http://www.w3.org/2000/svg">
  <g transform="matrix(1 0 0 1 -1336 -363 )">
    <path d="M 8.102163461538462 1.2869198312236292  C 8.239182692307692 1.4205344585091413  8.307692307692308 1.5787623066104066  8.307692307692308 1.7616033755274256  L 8.307692307692308 13.238396624472575  C 8.307692307692308 13.421237693389592  8.239182692307692 13.579465541490856  8.102163461538462 13.71308016877637  C 7.965144230769231 13.846694796061884  7.802884615384616 13.913502109704641  7.615384615384615 13.913502109704641  C 7.427884615384616 13.913502109704641  7.265625000000001 13.846694796061884  7.128605769230769 13.71308016877637  L 3.5264423076923075 10.200421940928269  L 0.6923076923076923 10.200421940928269  C 0.5048076923076924 10.200421940928269  0.342548076923077 10.133614627285514  0.20552884615384615 10.000000000000002  C 0.06850961538461538 9.866385372714486  0 9.70815752461322  0 9.525316455696203  L 0 5.474683544303797  C 0 5.291842475386778  0.06850961538461538 5.133614627285511  0.20552884615384615 5.000000000000001  C 0.342548076923077 4.866385372714485  0.5048076923076924 4.799578059071731  0.6923076923076923 4.799578059071731  L 3.5264423076923075 4.799578059071731  L 7.128605769230769 1.2869198312236292  C 7.265625000000001 1.1533052039381153  7.427884615384616 1.0864978902953593  7.615384615384615 1.0864978902953593  C 7.802884615384616 1.0864978902953593  7.965144230769231 1.1533052039381153  8.102163461538462 1.2869198312236292  Z M 12.001802884615383 6.00210970464135  C 12.30829326923077 6.466244725738396  12.461538461538462 6.9655414908579445  12.461538461538462 7.5  C 12.461538461538462 8.034458509142054  12.30829326923077 8.531997187060478  12.001802884615383 8.992616033755274  C 11.6953125 9.453234880450069  11.289663461538462 9.781997187060478  10.78485576923077 9.978902953586498  C 10.712740384615387 10.014064697609  10.622596153846155 10.031645569620252  10.514423076923077 10.031645569620252  C 10.326923076923078 10.031645569620252  10.164663461538462 9.966596343178619  10.02764423076923 9.836497890295359  C 9.890625000000002 9.706399437412093  9.822115384615383 9.546413502109704  9.822115384615383 9.356540084388186  C 9.822115384615383 9.20886075949367  9.865384615384617 9.084036568213783  9.951923076923077 8.982067510548523  C 10.038461538461538 8.880098452883262  10.143028846153847 8.792194092827005  10.265625 8.718354430379748  C 10.388221153846157 8.644514767932488  10.510817307692308 8.563642756680728  10.633413461538462 8.475738396624473  C 10.756009615384615 8.387834036568213  10.860576923076923 8.2612517580872  10.947115384615383 8.095991561181433  C 11.033653846153847 7.930731364275667  11.076923076923077 7.732067510548522  11.076923076923077 7.5  C 11.076923076923077 7.267932489451478  11.033653846153847 7.069268635724331  10.947115384615383 6.904008438818565  C 10.860576923076923 6.738748241912798  10.756009615384615 6.612165963431785  10.633413461538462 6.524261603375528  C 10.510817307692308 6.436357243319269  10.388221153846157 6.355485232067511  10.265625 6.281645569620254  C 10.143028846153847 6.207805907172995  10.038461538461538 6.119901547116736  9.951923076923077 6.017932489451477  C 9.865384615384617 5.915963431786216  9.822115384615383 5.791139240506328  9.822115384615383 5.643459915611814  C 9.822115384615383 5.453586497890294  9.890625000000002 5.293600562587903  10.02764423076923 5.163502109704642  C 10.164663461538462 5.0334036568213785  10.326923076923078 4.968354430379746  10.514423076923077 4.968354430379746  C 10.622596153846155 4.968354430379746  10.712740384615387 4.985935302390999  10.78485576923077 5.021097046413502  C 11.289663461538462 5.210970464135022  11.6953125 5.537974683544304  12.001802884615383 6.00210970464135  Z M 14.311298076923077 4.520042194092826  C 14.924278846153847 5.430731364275668  15.23076923076923 6.424050632911392  15.23076923076923 7.5  C 15.23076923076923 8.575949367088608  14.924278846153847 9.569268635724331  14.311298076923077 10.479957805907173  C 13.69831730769231 11.390646976090013  12.887019230769232 12.053445850914203  11.877403846153847 12.468354430379748  C 11.783653846153848 12.50351617440225  11.693509615384617 12.521097046413502  11.606971153846153 12.521097046413502  C 11.412259615384617 12.521097046413502  11.246394230769232 12.454289732770746  11.109375 12.320675105485233  C 10.97235576923077 12.187060478199719  10.903846153846155 12.028832630098453  10.903846153846153 11.845991561181433  C 10.903846153846155 11.571729957805907  11.044471153846155 11.364275668073136  11.325721153846153 11.223628691983123  C 11.72956730769231 11.0196905766526  12.00360576923077 10.864978902953586  12.147836538461538 10.759493670886076  C 12.681490384615387 10.379746835443038  13.097956730769232 9.903305203938114  13.397235576923077 9.330168776371307  C 13.696514423076923 8.7570323488045  13.846153846153847 8.146976090014064  13.846153846153847 7.5  C 13.846153846153847 6.853023909985934  13.696514423076923 6.242967651195499  13.397235576923077 5.669831223628691  C 13.097956730769232 5.096694796061884  12.681490384615387 4.620253164556962  12.147836538461538 4.240506329113924  C 12.00360576923077 4.135021097046414  11.72956730769231 3.9803094233473972  11.325721153846153 3.776371308016877  C 11.044471153846155 3.635724331926862  10.903846153846155 3.428270042194093  10.903846153846153 3.1540084388185647  C 10.903846153846155 2.9711673699015457  10.97235576923077 2.81293952180028  11.109375 2.679324894514768  C 11.246394230769232 2.5457102672292544  11.408653846153847 2.4789029535864984  11.596153846153847 2.4789029535864984  C 11.689903846153847 2.4789029535864984  11.783653846153848 2.496483825597747  11.877403846153847 2.5316455696202538  C 12.887019230769232 2.946554149085794  13.69831730769231 3.609353023909984  14.311298076923077 4.520042194092826  Z M 16.626201923076923 3.043248945147679  C 17.54206730769231 4.396976090014064  18 5.882559774964836  18 7.5  C 18 9.11744022503516  17.54206730769231 10.603023909985932  16.626201923076923 11.95675105485232  C 15.71033653846154 13.310478199718705  14.49158653846154 14.307313642756679  12.969951923076923 14.947257383966244  C 12.876201923076923 14.982419127988747  12.782451923076923 15  12.688701923076923 15  C 12.501201923076923 15  12.338942307692308 14.933192686357245  12.201923076923077 14.799578059071731  C 12.064903846153848 14.665963431786217  11.99639423076923 14.50773558368495  11.99639423076923 14.324894514767932  C 11.99639423076923 14.071729957805907  12.13701923076923 13.864275668073136  12.41826923076923 13.702531645569621  C 12.46875 13.674402250351617  12.549879807692308 13.637482419127988  12.661658653846153 13.591772151898734  C 12.773437500000002 13.54606188466948  12.85456730769231 13.509142053445853  12.905048076923077 13.481012658227849  C 13.236778846153847 13.30520393811533  13.532451923076923 13.125879043600563  13.792067307692308 12.943037974683545  C 14.679086538461538 12.30309423347398  15.37139423076923 11.504922644163148  15.868990384615383 10.548523206751055  C 16.36658653846154 9.59212376933896  16.615384615384617 8.575949367088608  16.615384615384617 7.5  C 16.615384615384617 6.424050632911392  16.36658653846154 5.407876230661041  15.868990384615383 4.451476793248945  C 15.37139423076923 3.495077355836849  14.679086538461538 2.6969057665260188  13.792067307692308 2.0569620253164556  C 13.532451923076923 1.8741209563994365  13.236778846153847 1.694796061884668  12.905048076923077 1.5189873417721516  C 12.85456730769231 1.4908579465541476  12.773437500000002 1.4539381153305193  12.661658653846153 1.4082278481012662  C 12.549879807692308 1.3625175808720096  12.46875 1.3255977496483813  12.41826923076923 1.2974683544303804  C 12.13701923076923 1.1357243319268613  11.99639423076923 0.928270042194092  11.99639423076923 0.6751054852320681  C 11.99639423076923 0.49226441631504747  12.064903846153848 0.3340365682137819  12.201923076923077 0.20042194092826981  C 12.338942307692308 0.06680731364275605  12.501201923076923 0  12.688701923076923 0  C 12.782451923076923 0  12.876201923076923 0.017580872011250803  12.969951923076923 0.05274261603375574  C 14.49158653846154 0.6926863572433173  15.71033653846154 1.6895218002812924  16.626201923076923 3.043248945147679  Z " fill-rule="nonzero" fill="#000000" stroke="none" transform="matrix(1 0 0 1 1336 363 )" />
  </g>
</svg>