<svg t="1685266776621" class="icon" viewBox="0 0 1024 1024" version="1.1" xmlns="http://www.w3.org/2000/svg" p-id="1093" width="200" height="200"><path d="M193.207547 695.54717a154.566038 154.566038 0 1 0 309.132076 0 154.566038 154.566038 0 1 0-309.132076 0Z" fill="#2c2c2c" p-id="1094"></path><path d="M492.872453 667.068377a14.683774 14.683774 0 0 0-12.01751 3.284529c-3.651623 2.898113-6.91683 6.144-9.853585 9.776302-3.632302 5.081358-6.375849 12.152755-8.172679 21.214188-1.835472 9.080755-2.743547 18.316075-2.743547 27.744604 0 9.447849 0.908075 18.316075 2.743547 26.662642 1.816151 8.346566 4.907472 14.683774 9.273963 19.050264 4.385811 5.081358 10.568453 8.346566 18.586566 9.795622 6.569057-1.449057 12.751698-1.081962 18.586566 1.081963 5.081358 1.449057 10.182038 4.540377 15.282717 9.254641s9.46717 12.152755 13.138113 22.315472c5.796226 15.958943 6.182642 30.835925 1.081962 44.611622-5.100679 13.775698-12.384604 24.653283-21.851774 32.652076-6.569057 5.796226-10.76166 11.051472-12.55849 15.765736a25.542038 25.542038 0 0 0-1.661585 13.601811c1.468377 4.34717 3.651623 9.080755 6.569057 14.142793 2.898113 5.081358 6.182642 10.529811 9.834264 16.326037L483.018868 1024l-93.976151-365.645283L0 553.887396 1024 0 819.625057 386.318491c-12.365283-2.898113-26.585358-4.173283-42.602265-3.82551-16.036226 0.386415-28.42083 4.540377-37.173132 12.519849a13.910943 13.910943 0 0 0-5.448452 8.69434l-2.202566 10.896905c-0.714868 5.796226-2.898113 13.06083-6.549736 21.774491-3.632302 8.69434-13.83366 16.306717-30.604076 22.837132-7.998792 2.898113-15.10883 6.530415-21.310792 10.877585-6.182642 4.366491-12.017509 7.998792-17.485283 10.896906a40.573585 40.573585 0 0 1-16.384 4.888151c-5.467774 0.367094-11.109434-2.357132-16.944302-8.153359-7.283925-7.264604-14.567849-10.529811-21.851774-9.795623-5.834868 0.714868-11.843623 3.091321-18.026264 7.071397-6.182642 3.980075-12.384604 8.69434-18.586566 14.142792-6.182642 5.448453-11.650415 11.437887-16.384 17.968302a80.181132 80.181132 0 0 0-10.394566 18.489962c-2.898113 5.796226-4.173283 11.78566-3.825509 17.968302 0.367094 6.144 2.376453 10.684377 6.008754 13.582491v1.101283l13.138114 13.041509c2.898113 2.898113 4.540377 5.815547 4.907471 8.713661 0.347774 2.898113-0.386415 6.530415-2.183245 10.896905-1.835472 4.34717-4.192604 10.510491-7.110038 18.489963-6.569057 15.224755-13.485887 28.826566-20.769811 40.805433-7.283925 11.978868-18.93434 17.581887-34.970566 16.867019zM1024 703.565283c0-9.892226-1.449057-18.122868-4.366491-24.711245a13.852981 13.852981 0 0 0-6.569056-7.67034 21.619925 21.619925 0 0 0-9.853585-2.202566c-10.201358 0.734189-20.595925-1.642264-31.183698-7.148679-10.568453-5.467774-17.678491-13.331321-21.330113-23.590642a47.258566 47.258566 0 0 1-2.724227-30.72c2.55034-10.259321 7.844226-19.050264 15.843019-26.353509 1.468377-0.734189 2.936755-2.56966 4.385811-5.487094a17.775094 17.775094 0 0 0 2.202566-7.689661c-1.468377-10.24-6.569057-19.939019-15.321358-29.097056-8.752302-9.138717-17.137509-15.553208-25.174943-19.204831-6.569057-2.202566-12.751698-0.386415-18.586567 5.487095a45.790189 45.790189 0 0 1-26.797886 14.819019 54.078792 54.078792 0 0 1-31.183698-3.864151 46.447094 46.447094 0 0 1-22.972378-20.286793 51.103396 51.103396 0 0 1-6.569056-29.097056c0-2.917434-0.714868-6.221283-2.183246-9.872906a13.234717 13.234717 0 0 0-7.651019-7.68966 961.091623 961.091623 0 0 1-12.577811-3.284529 67.487396 67.487396 0 0 0-17.504604-2.202566c-6.201962 0-12.403925 0.560302-18.605886 1.642264-6.182642 1.101283-11.109434 3.477736-14.761057 7.14868-2.917434 2.917434-4.385811 7.303245-4.385811 13.157434 0 2.202566-0.714868 5.313208-2.183246 9.331924a90.942792 90.942792 0 0 1-16.963622 28.015094 39.588226 39.588226 0 0 1-13.659774 9.853585 51.644377 51.644377 0 0 1-30.642717 1.661585 62.792453 62.792453 0 0 1-27.338868-14.819019 74.809962 74.809962 0 0 0-6.028075-5.487094c-1.816151-1.468377-4.559698-1.835472-8.192-1.101283-7.303245 1.468377-15.128151 6.221283-23.532679 14.258717-8.385208 8.056755-14.393962 16.113509-18.045585 24.150943a32.26566 32.26566 0 0 0-2.183246 12.075472c0 4.405132 1.081962 7.341887 3.284529 8.790943v1.101284c8.018113 7.322566 13.852981 16.461283 17.504603 27.435471 3.632302 10.974189 3.284528 21.600604-1.101283 31.840604-4.366491 10.24-12.03683 17.92966-22.972377 23.04966-10.935547 5.12-21.523321 7.68966-31.724679 7.689661-5.100679-0.734189-9.853585 2.202566-14.220076 8.771622-4.385811 7.341887-6.762264 18.122868-7.110037 32.381585-0.386415 14.297358 2.009358 24.344151 7.110037 30.19834 2.917434 3.670943 7.283925 5.854189 13.138114 6.588377 7.283925 0.734189 14.220075 2.56966 20.769811 5.487095 5.834868 2.202566 11.302642 5.12 16.422641 8.790943 5.100679 3.670943 8.732981 8.771623 10.935548 15.36 3.651623 10.24 3.825509 19.939019 0.540981 29.097057-3.284528 9.138717-7.844226 16.654491-13.679095 22.508679-8.018113 6.569057-11.302642 12.80966-9.853585 18.644528 0.734189 3.670943 2.743547 7.882868 6.028076 12.635774a185.479245 185.479245 0 0 0 10.935547 14.278037c4.018717 4.752906 8.385208 8.96483 13.138113 12.616453 4.733585 3.670943 9.293283 6.569057 13.679095 8.771623 9.46717 2.936755 16.403321 1.835472 20.769811-3.284528 7.303245-8.056755 16.615849-13.524528 27.89917-16.461283a48.64966 48.64966 0 0 1 32.26566 2.183245 44.824151 44.824151 0 0 1 22.991698 21.967698c5.100679 10.24 7.283925 20.48 6.569057 30.72h1.081962c-1.468377 7.341887 1.449057 12.828981 8.752302 16.480604 8.018113 3.670943 18.219472 5.487094 30.623396 5.487094s21.523321-1.835472 27.358189-5.487094c5.834868-3.670943 8.752302-9.505811 8.752302-17.562566 0-10.24 2.724226-20.132226 8.192-29.638038a43.162566 43.162566 0 0 1 23.532679-19.765132 37.250415 37.250415 0 0 1 30.623396 0c10.220679 4.385811 18.238792 9.158038 24.073661 14.278038 2.898113 2.202566 5.64166 4.018717 8.192 5.487094 2.55034 1.468377 6.028075 1.816151 10.394566 1.101283 8.752302-0.734189 18.064906-6.047396 27.899169-15.920302 9.853585-9.892226 15.495245-18.489962 16.963623-25.812528 1.449057-5.854189 0.714868-10.607094-2.183245-14.258717a36.535547 36.535547 0 0 0-4.385811-5.487094 51.837585 51.837585 0 0 1-14.220076-26.35351 50.021434 50.021434 0 0 1 3.284528-30.72c4.366491-10.24 11.669736-18.122868 21.871095-23.609962 10.220679-5.506415 20.422038-7.882868 30.642717-7.148679 3.632302 0 7.110038-0.908075 10.375245-2.743548 3.284528-1.816151 5.660981-5.293887 7.129358-10.433207 2.898113-9.505811 4.366491-19.20483 4.366491-29.077736zM772.308528 811.471698a95.251321 95.251321 0 0 0 37.714114-7.708981 97.78234 97.78234 0 0 0 30.99049-20.557283 98.709736 98.709736 0 0 0 20.673208-30.314264A92.68166 92.68166 0 0 0 869.433962 714.867925c0-13.022189-2.588981-25.503396-7.747622-37.501585a97.067472 97.067472 0 0 0-20.673208-30.835925 97.78234 97.78234 0 0 0-30.99049-20.557283A95.232 95.232 0 0 0 772.308528 618.264151c-13.080151 0-25.484075 2.56966-37.192453 7.708981a99.405283 99.405283 0 0 0-30.48815 20.557283 97.222038 97.222038 0 0 0-20.653887 30.835925A93.898868 93.898868 0 0 0 676.226415 714.867925c0 13.717736 2.588981 26.37283 7.747623 38.023245a98.883623 98.883623 0 0 0 20.673207 30.333585c8.597736 8.559094 18.760453 15.398642 30.46883 20.537962a91.580377 91.580377 0 0 0 37.192453 7.708981z" fill="#2c2c2c" p-id="1095"></path></svg>