<?xml version="1.0" encoding="utf-8"?>
<svg version="1.1" xmlns:xlink="http://www.w3.org/1999/xlink" width="41px" height="41px" xmlns="http://www.w3.org/2000/svg">
  <defs>
    <filter x="48px" y="332px" width="41px" height="41px" filterUnits="userSpaceOnUse" id="filter933">
      <feOffset dx="1" dy="1" in="SourceAlpha" result="shadowOffsetInner" />
      <feGaussianBlur stdDeviation="2.5" in="shadowOffsetInner" result="shadowGaussian" />
      <feComposite in2="shadowGaussian" operator="atop" in="SourceAlpha" result="shadowComposite" />
      <feColorMatrix type="matrix" values="0 0 0 0 0  0 0 0 0 0  0 0 0 0 0  0 0 0 0.6980392156862745 0  " in="shadowComposite" />
    </filter>
    <g id="widget934">
      <path d="M 67.5 336  C 76.18 336  83 342.82  83 351.5  C 83 360.18  76.18 367  67.5 367  C 58.82 367  52 360.18  52 351.5  C 52 342.82  58.82 336  67.5 336  Z " fill-rule="nonzero" fill="#02a7f0" stroke="none" />
      <path d="M 67.5 336.5  C 75.9 336.5  82.5 343.1  82.5 351.5  C 82.5 359.9  75.9 366.5  67.5 366.5  C 59.1 366.5  52.5 359.9  52.5 351.5  C 52.5 343.1  59.1 336.5  67.5 336.5  Z " stroke-width="1" stroke="#555555" fill="none" />
    </g>
  </defs>
  <g transform="matrix(1 0 0 1 -48 -332 )">
    <use xlink:href="#widget934" filter="url(#filter933)" />
    <use xlink:href="#widget934" />
  </g>
</svg>