<svg t="1685279431328" class="icon" viewBox="0 0 1024 1024" version="1.1" xmlns="http://www.w3.org/2000/svg" p-id="2633" width="200" height="200"><path d="M777.5 132.6h-527c-68.7 0-124.3 55.7-124.3 124.3v371.2c0 68.7 55.7 124.3 124.3 124.3H395L467.4 868c4.4 7 10.4 13 17.4 17.4 9.1 5.7 19.2 8.4 29.1 8.4 18.3 0 36.2-9.1 46.6-25.8L633 752.4h144.5c68.7 0 124.3-55.7 124.3-124.3V256.9c0-68.6-55.7-124.3-124.3-124.3z m81.6 495.5c0 45-36.6 81.6-81.6 81.6H633c-14.7 0-28.4 7.6-36.2 20l-72.4 115.6c-2.3 3.6-6.1 5.7-10.4 5.7-2.3 0-4.5-0.6-6.4-1.9-1.6-1-2.9-2.3-3.9-3.9l-72.4-115.6c-7.8-12.5-21.5-20-36.2-20H250.5c-45 0-81.6-36.6-81.6-81.6V256.9c0-45 36.6-81.6 81.6-81.6h526.9c45 0 81.6 36.6 81.6 81.6v371.2z" p-id="2634"></path><path d="M333.7 369.3c-40.4 0-73.2 32.8-73.2 73.2 0 40.4 32.8 73.2 73.2 73.2 40.4 0 73.2-32.8 73.2-73.2 0-40.3-32.8-73.2-73.2-73.2z m0 103.7c-16.8 0-30.5-13.7-30.5-30.5s13.7-30.5 30.5-30.5 30.5 13.7 30.5 30.5-13.7 30.5-30.5 30.5zM519.3 369.3c-40.4 0-73.2 32.8-73.2 73.2 0 40.4 32.8 73.2 73.2 73.2s73.2-32.8 73.2-73.2c0-40.3-32.8-73.2-73.2-73.2z m0 103.7c-16.8 0-30.5-13.7-30.5-30.5s13.7-30.5 30.5-30.5 30.5 13.7 30.5 30.5-13.6 30.5-30.5 30.5zM705 369.3c-40.4 0-73.2 32.8-73.2 73.2 0 40.4 32.8 73.2 73.2 73.2 40.4 0 73.2-32.8 73.2-73.2 0-40.3-32.9-73.2-73.2-73.2z m0 103.7c-16.8 0-30.5-13.7-30.5-30.5S688.2 412 705 412s30.5 13.7 30.5 30.5S721.8 473 705 473z" p-id="2635"></path></svg>