<?xml version="1.0" encoding="utf-8"?>
<svg version="1.1" xmlns:xlink="http://www.w3.org/1999/xlink" width="41px" height="42px" xmlns="http://www.w3.org/2000/svg">
  <defs>
    <filter x="978px" y="760px" width="41px" height="42px" filterUnits="userSpaceOnUse" id="filter937">
      <feOffset dx="1" dy="1" in="SourceAlpha" result="shadowOffsetInner" />
      <feGaussianBlur stdDeviation="2.5" in="shadowOffsetInner" result="shadowGaussian" />
      <feComposite in2="shadowGaussian" operator="atop" in="SourceAlpha" result="shadowComposite" />
      <feColorMatrix type="matrix" values="0 0 0 0 0  0 0 0 0 0  0 0 0 0 0  0 0 0 0.6980392156862745 0  " in="shadowComposite" />
    </filter>
    <g id="widget938">
      <path d="M 997.5 764  C 1006.18 764  1013 771.04  1013 780  C 1013 788.96  1006.18 796  997.5 796  C 988.82 796  982 788.96  982 780  C 982 771.04  988.82 764  997.5 764  Z " fill-rule="nonzero" fill="#81d3f8" stroke="none" />
      <path d="M 997.5 764.5  C 1005.9 764.5  1012.5 771.32  1012.5 780  C 1012.5 788.68  1005.9 795.5  997.5 795.5  C 989.1 795.5  982.5 788.68  982.5 780  C 982.5 771.32  989.1 764.5  997.5 764.5  Z " stroke-width="1" stroke="#ffffff" fill="none" />
    </g>
  </defs>
  <g transform="matrix(1 0 0 1 -978 -760 )">
    <use xlink:href="#widget938" filter="url(#filter937)" />
    <use xlink:href="#widget938" />
  </g>
</svg>