<?xml version="1.0" encoding="utf-8"?>
<svg version="1.1" xmlns:xlink="http://www.w3.org/1999/xlink" width="41px" height="42px" xmlns="http://www.w3.org/2000/svg">
  <defs>
    <filter x="1339px" y="861px" width="41px" height="42px" filterUnits="userSpaceOnUse" id="filter939">
      <feOffset dx="1" dy="1" in="SourceAlpha" result="shadowOffsetInner" />
      <feGaussianBlur stdDeviation="2.5" in="shadowOffsetInner" result="shadowGaussian" />
      <feComposite in2="shadowGaussian" operator="atop" in="SourceAlpha" result="shadowComposite" />
      <feColorMatrix type="matrix" values="0 0 0 0 0  0 0 0 0 0  0 0 0 0 0  0 0 0 0.6980392156862745 0  " in="shadowComposite" />
    </filter>
    <g id="widget940">
      <path d="M 1358.5 865  C 1367.18 865  1374 872.04  1374 881  C 1374 889.96  1367.18 897  1358.5 897  C 1349.82 897  1343 889.96  1343 881  C 1343 872.04  1349.82 865  1358.5 865  Z " fill-rule="nonzero" fill="#02a7f0" stroke="none" />
      <path d="M 1358.5 865.5  C 1366.9 865.5  1373.5 872.32  1373.5 881  C 1373.5 889.68  1366.9 896.5  1358.5 896.5  C 1350.1 896.5  1343.5 889.68  1343.5 881  C 1343.5 872.32  1350.1 865.5  1358.5 865.5  Z " stroke-width="1" stroke="#ffffff" fill="none" />
    </g>
  </defs>
  <g transform="matrix(1 0 0 1 -1339 -861 )">
    <use xlink:href="#widget940" filter="url(#filter939)" />
    <use xlink:href="#widget940" />
  </g>
</svg>