<?xml version="1.0" encoding="utf-8"?>
<svg version="1.1" xmlns:xlink="http://www.w3.org/1999/xlink" width="280px" height="59px" xmlns="http://www.w3.org/2000/svg">
  <defs>
    <mask fill="white" id="clip941">
      <path d="M 0 43.473684210526315  L 0 15.526315789473683  C 0 6.831578947368386  4.190476190476278 0  9.523809523809526 0  L 173.5338345864641 0  L 270.4761904761905 0  C 275.80952380952374 0  280 6.831578947368386  280 15.526315789473683  L 280 43.473684210526315  C 280 52.168421052631615  275.80952380952374 59  270.4761904761905 59  L 9.523809523809526 59  C 4.190476190476278 59  0 52.168421052631615  0 43.473684210526315  Z " fill-rule="evenodd" />
    </mask>
  </defs>
  <g transform="matrix(1 0 0 1 -1057 -888 )">
    <path d="M 0 43.473684210526315  L 0 15.526315789473683  C 0 6.831578947368386  4.190476190476278 0  9.523809523809526 0  L 173.5338345864641 0  L 270.4761904761905 0  C 275.80952380952374 0  280 6.831578947368386  280 15.526315789473683  L 280 43.473684210526315  C 280 52.168421052631615  275.80952380952374 59  270.4761904761905 59  L 9.523809523809526 59  C 4.190476190476278 59  0 52.168421052631615  0 43.473684210526315  Z " fill-rule="nonzero" fill="#eaf8fe" stroke="none" transform="matrix(1 0 0 1 1057 888 )" />
    <path d="M 0 43.473684210526315  L 0 15.526315789473683  C 0 6.831578947368386  4.190476190476278 0  9.523809523809526 0  L 173.5338345864641 0  L 270.4761904761905 0  C 275.80952380952374 0  280 6.831578947368386  280 15.526315789473683  L 280 43.473684210526315  C 280 52.168421052631615  275.80952380952374 59  270.4761904761905 59  L 9.523809523809526 59  C 4.190476190476278 59  0 52.168421052631615  0 43.473684210526315  Z " stroke-width="2" stroke="#81d3f8" fill="none" transform="matrix(1 0 0 1 1057 888 )" mask="url(#clip941)" />
  </g>
</svg>