<svg t="1685268999602" class="icon" viewBox="0 0 1024 1024" version="1.1" xmlns="http://www.w3.org/2000/svg" p-id="1181" width="200" height="200"><path d="M511.616 64a448 448 0 1 0 0 896 448 448 0 0 0 0-896z m-384 448a384 384 0 1 1 768 0 384 384 0 0 1-768 0zM420.48 411.584h-64a155.328 155.328 0 0 1 155.2-155.2 155.328 155.328 0 0 1 155.2 155.2c0 68.352-52.48 121.728-105.408 143.296a29.056 29.056 0 0 0-17.792 27.008V640h-64v-58.112c0-38.912 23.552-72.256 57.472-86.208l0.192-0.064c37.12-15.104 65.536-49.6 65.536-84.032 0-50.24-40.96-91.2-91.2-91.2s-91.2 40.96-91.2 91.2zM550.016 742.4a38.4 38.4 0 1 0-76.8 0 38.4 38.4 0 0 0 76.8 0z" fill="#ffffff" p-id="1182"></path></svg>