<svg width="22" height="22" viewBox="0 0 22 22" fill="none" xmlns="http://www.w3.org/2000/svg">
<g id="Chat">
<path id="Path_34194" opacity="0.4" d="M11.0047 0.45459C5.18173 0.454588 0.459786 5.17341 0.45461 10.9978C0.45125 12.6961 0.85994 14.3698 1.6456 15.8754C1.72063 16.0161 1.78627 16.1568 1.86129 16.2881C2.02952 16.6123 2.06321 16.9898 1.95507 17.3387C1.6542 18.1415 1.40364 18.9623 1.20484 19.7962C1.20484 20.209 1.32675 20.4529 1.76752 20.4529C2.5685 20.2731 3.35772 20.0444 4.13075 19.7681C4.46662 19.6804 4.82181 19.7034 5.14356 19.8338C5.43427 19.9839 5.69685 20.1996 5.98757 20.3309H6.08135C9.35086 22.0523 13.2824 21.9374 16.4459 20.0281C19.6094 18.1188 21.5438 14.6934 21.5455 10.9978C21.5403 5.17707 16.8241 0.459761 11.0047 0.45459Z" fill="#4B41F1"/>
</g>
</svg>
