<svg width="15" height="15" viewBox="0 0 15 15" fill="none" xmlns="http://www.w3.org/2000/svg">
<g id="&#229;&#143;&#145;&#233;&#159;&#179; 1">
<path id="Vector" d="M11.1374 3.41261C10.9649 3.26261 10.1324 3.82511 10.6274 4.32761C13.1699 6.48011 13.2074 8.50511 10.6274 10.7251C10.2449 11.0926 10.7549 11.7901 11.1374 11.6401C14.6624 10.0051 14.5124 4.93511 11.1374 3.41261ZM10.4999 9.54761C11.7824 8.50511 11.6924 6.52511 10.4999 5.63261C10.0274 5.34761 9.7349 6.28511 9.7349 6.28511C9.7349 6.28511 10.9274 7.78511 9.7349 8.89511C9.4949 9.20261 9.9449 9.83261 10.4999 9.54761ZM8.1899 12.9001C8.1899 14.2351 7.1624 13.5451 7.1624 13.5451L2.7224 9.81011H2.0399C1.6124 9.81011 1.2749 9.45761 1.2749 9.03011V5.89511C1.2749 5.46011 1.6199 5.11511 2.0399 5.11511H2.8574L7.1624 1.46261C7.1624 1.46261 8.1899 0.76511 8.1899 2.11511V12.9001Z" fill="#7D42FE"/>
</g>
</svg>
