<svg width="23" height="18" viewBox="0 0 23 18" fill="none" xmlns="http://www.w3.org/2000/svg">
<g id="&#229;&#175;&#185;&#229;&#139;&#190; 1">
<path id="Vector" d="M9.26993 16.8818C11.1615 14.1828 13.1186 11.7869 14.573 10.1004C15.4316 9.10476 16.238 8.1992 17.0099 7.38456C17.7084 6.64724 18.401 5.97118 19.0668 5.33508C20.2016 4.25061 21.5283 3.04931 22.3626 2.53482L21.2971 1.09253C19.7523 2.07936 18.2653 3.13341 17.1172 3.94337C16.4481 4.41544 15.8272 4.86916 15.2421 5.30132C14.6625 5.72947 14.0641 6.19969 13.4331 6.69292C12.3376 7.5492 10.9301 8.70025 9.56724 9.88969L6.14737 6.59171L2.13281 9.82222L9.26993 16.8818Z" fill="#8150EB"/>
</g>
</svg>
